<svg width="40" height="40" viewBox="0 0 40 40" fill="none" xmlns="http://www.w3.org/2000/svg">
<g opacity="0.8">
<path d="M7.63675 14.9999H6.66675V6.66659L7.63675 14.9999ZM7.63675 14.9999C8.74316 12.2635 10.7262 9.97143 13.2751 8.48302C15.824 6.99461 18.7948 6.39394 21.7217 6.77515C24.6486 7.15637 27.3664 8.49791 29.449 10.5895C31.5317 12.6812 32.8615 15.4047 33.2301 18.3333M7.63675 14.9999H15.0001M32.3651 24.9999H33.3334V33.3333L32.3651 24.9999ZM32.3651 24.9999C31.2571 27.7348 29.2735 30.025 26.7248 31.5121C24.1761 32.9992 21.2063 33.5991 18.2802 33.218C15.3542 32.837 12.6371 31.4964 10.5543 29.4061C8.47153 27.3159 7.14067 24.594 6.77008 21.6666M32.3651 24.9999H25.0001" stroke="#121212" stroke-linecap="round" stroke-linejoin="round"/>
</g>
</svg>
