<svg width="14" height="14" viewBox="0 0 14 14" fill="none" xmlns="http://www.w3.org/2000/svg">
<path d="M13.4531 2.99414C12.9773 3.20469 12.4687 3.34688 11.9328 3.4125C12.4796 3.08438 12.9007 2.56484 13.0976 1.94687C12.5863 2.25039 12.0203 2.47187 11.416 2.58945C10.932 2.07266 10.2429 1.75 9.48276 1.75C8.01987 1.75 6.83589 2.93672 6.83589 4.39961C6.83589 4.60742 6.85776 4.80977 6.90425 5.00391C4.70308 4.89453 2.75073 3.83906 1.44644 2.23398C1.21948 2.625 1.08823 3.08164 1.08823 3.56562C1.08823 4.48437 1.55854 5.29648 2.26948 5.77227C1.83198 5.76133 1.42183 5.64102 1.06636 5.44141V5.47422C1.06636 6.75938 1.97964 7.82852 3.19097 8.07188C2.96948 8.13203 2.73433 8.16484 2.4937 8.16484C2.32417 8.16484 2.15737 8.14844 1.99605 8.11562C2.33237 9.16836 3.31128 9.93398 4.47065 9.95586C3.56558 10.6668 2.42261 11.0906 1.1812 11.0906C0.96792 11.0906 0.757373 11.077 0.549561 11.0523C1.71714 11.8125 3.10894 12.25 4.6019 12.25C9.4773 12.25 12.1406 8.21133 12.1406 4.70859C12.1406 4.59375 12.1378 4.47891 12.1324 4.3668C12.6492 3.99219 13.0976 3.52734 13.4531 2.99414Z" fill="white"/>
</svg>
