<svg width="14" height="14" viewBox="0 0 14 14" fill="none" xmlns="http://www.w3.org/2000/svg">
<path d="M7.00006 5.17757C5.99655 5.17757 5.1776 5.99651 5.1776 7.00003C5.1776 8.00354 5.99655 8.82249 7.00006 8.82249C8.00358 8.82249 8.82253 8.00354 8.82253 7.00003C8.82253 5.99651 8.00358 5.17757 7.00006 5.17757ZM12.4661 7.00003C12.4661 6.24534 12.4729 5.49749 12.4305 4.74417C12.3882 3.86917 12.1885 3.09261 11.5487 2.45276C10.9075 1.81155 10.1323 1.61331 9.25729 1.57093C8.5026 1.52854 7.75475 1.53538 7.00143 1.53538C6.24674 1.53538 5.49889 1.52854 4.74557 1.57093C3.87057 1.61331 3.09401 1.81292 2.45417 2.45276C1.81296 3.09397 1.61471 3.86917 1.57233 4.74417C1.52995 5.49886 1.53678 6.24671 1.53678 7.00003C1.53678 7.75335 1.52995 8.50257 1.57233 9.25589C1.61471 10.1309 1.81432 10.9074 2.45417 11.5473C3.09538 12.1885 3.87057 12.3867 4.74557 12.4291C5.50026 12.4715 6.24811 12.4647 7.00143 12.4647C7.75612 12.4647 8.50397 12.4715 9.25729 12.4291C10.1323 12.3867 10.9089 12.1871 11.5487 11.5473C12.1899 10.9061 12.3882 10.1309 12.4305 9.25589C12.4743 8.50257 12.4661 7.75471 12.4661 7.00003ZM7.00006 9.80413C5.44831 9.80413 4.19596 8.55178 4.19596 7.00003C4.19596 5.44827 5.44831 4.19593 7.00006 4.19593C8.55182 4.19593 9.80417 5.44827 9.80417 7.00003C9.80417 8.55178 8.55182 9.80413 7.00006 9.80413ZM9.91901 4.73597C9.55671 4.73597 9.26413 4.44339 9.26413 4.08108C9.26413 3.71878 9.55671 3.4262 9.91901 3.4262C10.2813 3.4262 10.5739 3.71878 10.5739 4.08108C10.574 4.16711 10.5571 4.25232 10.5243 4.33182C10.4914 4.41133 10.4432 4.48356 10.3823 4.5444C10.3215 4.60523 10.2493 4.65346 10.1698 4.68634C10.0902 4.71921 10.005 4.73607 9.91901 4.73597Z" fill="white"/>
</svg>
